<?xml version="1.0" standalone="no"?>
<!DOCTYPE svg PUBLIC "-//W3C//DTD SVG 20010904//EN"
 "http://www.w3.org/TR/2001/REC-SVG-20010904/DTD/svg10.dtd">
<svg version="1.0" xmlns="http://www.w3.org/2000/svg"
 width="662.000000pt" height="662.000000pt" viewBox="0 0 662.000000 662.000000"
 preserveAspectRatio="xMidYMid meet">
<metadata>
Created by potrace 1.11, written by Peter Selinger 2001-2013
</metadata>
<g transform="translate(0.000000,662.000000) scale(0.100000,-0.100000)"
fill="#000000" stroke="none">
<path d="M1048 6527 c-6 -12 -13 -33 -14 -47 -2 -14 -5 -36 -9 -50 -3 -14 -8
-35 -11 -47 -2 -13 -6 -33 -8 -45 -3 -13 -8 -34 -11 -48 -3 -14 -7 -36 -10
-50 -3 -14 -21 -99 -40 -190 -20 -91 -39 -178 -41 -195 -3 -16 -23 -111 -45
-210 -22 -99 -42 -191 -44 -205 -3 -14 -7 -36 -10 -50 -3 -14 -10 -45 -15 -70
-5 -25 -12 -56 -15 -70 -3 -14 -8 -34 -9 -45 -2 -11 -8 -40 -14 -65 -6 -25
-13 -58 -16 -75 -3 -16 -8 -40 -11 -52 -8 -35 -23 -108 -29 -138 -2 -11 -12
-54 -21 -95 -22 -103 -27 -126 -55 -265 -11 -53 -13 -66 -34 -160 -5 -20 -44
-202 -52 -240 -2 -11 -7 -31 -10 -45 -10 -40 -13 -393 -3 -411 7 -14 68 -16
596 -16 323 0 594 2 600 4 12 5 31 60 38 108 2 11 8 43 14 70 6 28 13 61 15
75 3 14 5 26 7 28 2 3 4 11 13 62 5 25 10 52 11 60 2 8 8 34 15 58 6 24 13 55
15 70 2 15 10 56 19 92 13 58 20 88 30 140 3 13 66 15 492 16 269 1 512 4 539
7 104 11 206 63 290 146 85 84 125 175 160 361 1 3 4 14 7 25 4 11 9 38 13 60
3 22 10 56 15 75 8 32 14 60 25 115 2 11 6 31 9 45 14 61 17 76 22 100 2 14
16 77 29 140 13 63 27 126 29 140 3 14 8 36 11 50 14 56 18 78 29 155 l12 80
13 -75 c7 -41 14 -85 16 -97 3 -20 17 -98 20 -113 3 -15 16 -78 19 -96 2 -12
7 -39 10 -60 4 -22 8 -46 11 -54 2 -8 6 -31 9 -50 3 -19 8 -46 11 -60 3 -14 7
-41 9 -60 3 -19 7 -42 10 -50 3 -8 7 -31 10 -50 3 -19 8 -46 11 -60 13 -66 25
-128 29 -155 2 -16 9 -55 15 -85 6 -30 13 -71 16 -90 3 -19 10 -54 16 -77 5
-23 6 -59 3 -80 -4 -21 -8 -47 -10 -58 -1 -11 -3 -20 -4 -20 -2 0 -5 -15 -14
-60 -3 -16 -8 -41 -11 -55 -5 -26 -32 -151 -40 -185 -3 -11 -7 -32 -10 -48 -3
-15 -13 -60 -21 -100 -21 -91 -25 -400 -7 -427 11 -16 53 -17 603 -17 535 -1
591 1 599 16 8 15 24 81 35 141 3 14 7 34 10 45 5 20 31 141 40 185 3 14 8 36
11 50 3 14 8 39 11 55 3 17 11 58 19 91 8 34 16 73 19 85 6 27 13 61 22 103 5
24 40 86 141 254 13 20 39 64 58 97 20 33 60 100 90 148 30 48 55 91 55 94 0
4 7 15 17 25 20 22 38 54 54 91 6 15 15 27 20 27 5 0 9 4 9 9 0 5 35 66 78
135 42 70 84 139 93 154 17 28 163 271 303 500 45 73 87 145 95 160 8 15 17
29 21 32 4 3 11 16 15 30 11 34 13 319 2 352 l-8 26 -344 0 c-309 0 -345 -1
-358 -16 -8 -9 -65 -102 -128 -207 -62 -104 -118 -193 -122 -196 -5 -3 -7 -8
-6 -10 2 -2 -14 -30 -34 -62 -20 -31 -37 -60 -37 -62 0 -3 -20 -36 -45 -75
-25 -39 -45 -75 -45 -80 0 -6 -3 -10 -7 -10 -5 0 -17 -18 -27 -40 -10 -22 -27
-47 -38 -56 -17 -16 -18 -16 -19 14 -1 18 -2 35 -4 40 -3 12 -22 112 -31 167
-3 17 -8 41 -10 55 -8 38 -22 110 -29 154 -4 21 -9 48 -11 60 -3 11 -7 35 -9
51 -3 17 -7 41 -10 55 -3 14 -7 39 -10 55 -15 85 -28 141 -37 152 -13 16
-1175 17 -1197 0 -11 -8 -16 -28 -15 -64 0 -29 -1 -53 -2 -53 -2 0 -18 15 -36
34 -35 35 -96 70 -144 82 -16 4 -536 9 -1156 10 l-1128 3 -12 -22z m1212 -750
c-16 -80 -16 -83 -30 -142 -13 -55 -17 -75 -24 -121 -3 -17 -10 -42 -15 -56
-5 -14 -7 -28 -4 -31 3 -3 1 -12 -3 -19 -4 -7 -9 -19 -10 -28 -1 -8 -4 -26 -7
-40 -15 -64 -18 -77 -23 -105 -16 -95 -18 -99 -53 -106 -21 -4 -34 -3 -37 5
-2 6 7 68 22 136 14 69 28 139 31 155 2 17 7 37 10 45 8 21 13 45 29 133 3 17
10 50 16 72 6 22 12 54 15 70 13 86 22 104 56 107 17 2 34 -1 36 -5 2 -5 -2
-36 -9 -70z"/>
<path d="M3196 2983 c-3 -3 -472 -6 -1040 -6 -569 0 -1040 -3 -1047 -8 -10 -6
-25 -58 -45 -159 -6 -34 -27 -133 -30 -145 -5 -21 -26 -121 -28 -135 -2 -8 -6
-28 -9 -45 -4 -16 -9 -39 -11 -50 -2 -11 -21 -96 -41 -190 -20 -93 -39 -179
-41 -190 -2 -11 -7 -33 -11 -50 -3 -16 -7 -37 -9 -45 -2 -13 -14 -71 -29 -140
-3 -14 -8 -41 -11 -60 -3 -19 -9 -39 -14 -45 -4 -5 -6 -18 -5 -27 2 -10 -1
-20 -6 -24 -5 -3 -7 -9 -5 -13 3 -4 0 -27 -6 -52 -6 -24 -12 -54 -14 -67 -7
-42 -13 -67 -23 -107 -6 -22 -13 -60 -17 -85 -3 -25 -8 -48 -11 -52 -4 -8 -9
-29 -18 -83 -3 -16 -8 -37 -10 -45 -2 -8 -6 -26 -9 -40 -2 -14 -14 -70 -26
-125 -12 -55 -24 -111 -27 -125 -8 -40 -11 -55 -13 -55 -1 0 -3 -9 -4 -20 -2
-19 -15 -84 -23 -115 -2 -8 -5 -26 -8 -40 -2 -14 -11 -56 -21 -95 -25 -101
-29 -452 -5 -464 22 -12 2221 -11 2269 0 20 5 45 11 55 14 46 11 143 74 196
127 81 81 131 188 155 331 3 15 7 35 10 45 3 9 7 28 10 42 3 14 7 36 10 50 3
13 8 41 11 61 3 20 10 51 16 70 5 19 12 48 15 64 6 39 12 70 14 70 1 0 3 9 5
20 1 11 5 31 8 45 12 55 58 277 63 305 2 17 9 44 14 60 5 17 12 46 15 65 13
79 15 90 24 113 6 14 7 27 4 30 -3 3 -1 11 3 18 4 7 9 22 10 34 3 20 41 203
50 240 3 11 7 31 9 45 2 14 4 25 5 25 2 0 6 19 14 65 4 19 9 42 11 50 5 17 9
37 26 130 7 36 16 69 20 74 9 10 422 12 438 1 6 -3 8 -12 4 -18 -4 -7 -8 -16
-9 -22 -1 -5 -15 -73 -32 -150 -17 -77 -33 -153 -37 -170 -11 -54 -16 -79 -45
-216 -16 -74 -32 -151 -35 -170 -3 -19 -11 -52 -17 -74 -6 -22 -13 -51 -15
-65 -4 -32 -11 -65 -13 -65 -2 0 -4 -14 -14 -79 -3 -21 -8 -42 -11 -46 -3 -4
-8 -25 -11 -46 -8 -48 -12 -69 -14 -69 -2 0 -7 -24 -15 -69 -4 -22 -11 -49
-15 -62 -5 -12 -7 -24 -4 -27 2 -2 0 -15 -5 -29 -5 -14 -12 -38 -14 -54 -7
-38 -26 -132 -33 -164 -3 -14 -7 -36 -10 -50 -3 -14 -7 -33 -10 -42 -5 -17
-11 -44 -20 -93 -4 -16 -7 -115 -9 -218 -2 -166 -1 -189 14 -196 9 -5 279 -9
599 -9 620 0 611 -1 613 46 0 9 2 24 4 32 2 8 16 71 30 140 15 68 28 127 30
130 1 3 6 27 9 54 4 27 10 54 14 60 4 6 7 18 7 26 2 27 17 105 23 115 3 5 7
18 8 30 3 28 12 72 18 93 5 16 10 41 21 100 3 15 8 38 11 52 3 14 8 34 10 45
2 11 27 126 54 255 28 129 53 246 55 260 2 14 13 68 25 120 24 107 28 124 35
160 3 14 7 36 10 50 20 89 27 127 30 145 2 11 4 20 5 20 2 0 7 22 26 127 3 18
10 40 15 49 4 9 6 18 4 21 -2 2 0 21 6 41 6 24 16 37 27 38 9 0 149 1 310 1
325 1 304 -4 318 69 8 46 12 64 14 64 1 0 3 9 4 20 2 11 9 47 16 80 7 33 14
147 16 252 3 174 2 193 -14 201 -10 6 -540 9 -1230 9 -1263 0 -1238 1 -1243
-38 -1 -5 -3 -13 -4 -19 -1 -5 -3 -19 -4 -31 -1 -20 -2 -20 -32 6 -67 56 -134
78 -239 80 -36 0 -70 4 -76 8 -6 3 -14 4 -18 0z m-872 -714 c-3 -5 -7 -21 -10
-34 -2 -14 -6 -37 -10 -52 -3 -16 -7 -41 -10 -58 -3 -16 -12 -57 -21 -90 -8
-33 -16 -70 -18 -82 -2 -12 -6 -36 -11 -55 -4 -18 -8 -42 -10 -53 -4 -27 -12
-60 -14 -60 -1 0 -3 -9 -5 -20 -2 -11 -6 -31 -10 -45 -3 -14 -8 -36 -10 -50
-2 -14 -6 -34 -9 -45 -7 -30 -34 -157 -40 -185 -2 -14 -11 -57 -20 -95 -15
-74 -21 -100 -31 -149 -3 -16 -11 -38 -16 -49 -6 -11 -7 -17 -2 -14 6 4 4 -17
-4 -46 -15 -55 -18 -70 -30 -127 -4 -19 -8 -37 -8 -40 -1 -3 -5 -25 -10 -50
-10 -52 -12 -58 -15 -65 -1 -3 -3 -11 -4 -17 -1 -18 -76 -23 -76 -6 0 7 7 42
16 78 8 35 17 80 20 100 3 19 8 38 10 41 2 3 6 20 9 37 3 18 12 65 21 105 8
39 17 80 19 90 2 10 7 26 9 35 3 10 8 31 10 47 2 17 18 95 36 175 18 80 34
154 35 165 2 11 11 52 20 90 9 39 18 81 21 95 6 36 23 115 39 185 8 33 16 74
19 90 3 17 8 41 11 55 3 14 9 43 13 65 6 34 12 41 37 46 35 6 57 1 49 -12z"/>
</g>
</svg>
