<svg viewBox="0 0 72 72" xmlns="http://www.w3.org/2000/svg"><g fill="none" stroke="#000" stroke-width="2"><g stroke-linecap="round" stroke-linejoin="round"><path d="m46.2551 52.4733-.0578-4.1409c0-1.2145 1.3811-2.542 2.1609-3.434 2.8766-3.3062 4.4518-7.5462 4.4316-11.9286 0-9.7158-7.4493-17.594-16.6307-17.5747-1.1042.0035-2.2052.1177-3.2866.3409-6.6084 1.3552-11.8742 7.0833-13.0225 14.1063-.9438 5.4162.6083 10.9689 4.2239 15.1106.768.8686 1.9951 2.1944 1.9951 3.3838l-.0184 4.1736"/><path d="m29.3706 51.0812v4.0036"/><path d="m34.1565 51.9733v4.0044"/><path d="m43.0632 51.0812v4.0036"/><path d="m38.7204 51.9733v4.0044"/><path d="m33.7024 48.7419 2.4557-4.8989 2.9357 4.8989"/></g><circle cx="29.3706" cy="39.2003" r="4.1878" stroke-miterlimit="10"/><circle cx="43.0632" cy="39.2003" r="4.1878" stroke-miterlimit="10"/><path d="m53.0148 20.6654c1.2729-1.2642 2.132-2.1147 2.4157-2.3897 0 0 1.9438 1.8393 3.2697 1.4425 1.3739-.4111 2.157-1.8078 2.036-2.9537-.1677-1.5889-2.11-3.0402-4.4383-2.5565.4057-1.5126.0682-3.0622-.9331-3.9948-1.6539-1.5404-4.078-.4787-4.9897.9177-1.2203 1.8691 1.5734 3.6628 1.5734 3.6628-.2657.2576-1.0353 1.0191-2.1762 2.1518" stroke-linecap="round" stroke-linejoin="round"/><path d="m19.6785 46.9079c-1.5494 1.5397-2.5998 2.5803-2.9198 2.8905-.6553-1.3027-2.133-1.943-3.4588-1.5463-1.3739.4111-2.157 1.8078-2.036 2.9537.1677 1.5889 2.11 3.0402 4.4383 2.5565-.4057 1.5126-.0682 3.0622.9332 3.9948 1.6539 1.5404 4.3294.6137 4.9897-.9177.469-1.0879.1927-2.2976-1.4383-3.5051.2604-.2525 1.0057-.9898 2.1108-2.087" stroke-linecap="round" stroke-linejoin="round"/><path d="m19.1125 20.7917c-1.3428-1.3339-2.2498-2.2319-2.5429-2.5161 0 0-1.9438 1.8393-3.2697 1.4425-1.3739-.4111-2.157-1.8078-2.036-2.9537.1677-1.5889 2.11-3.0402 4.4383-2.5565-.4057-1.5126-.0682-3.0622.9332-3.9948 1.6539-1.5404 4.078-.4787 4.9897.9177 1.2203 1.8691-1.5735 3.6629-1.5735 3.6629.2863.2776 1.1575 1.14 2.4478 2.4216" stroke-linecap="round" stroke-linejoin="round"/><path d="m52.4968 47.0821c1.4533 1.4439 2.4367 2.4179 2.7444 2.7162.6553-1.3027 2.133-1.943 3.4588-1.5463 1.3739.4111 2.157 1.8078 2.036 2.9537-.1677 1.5889-2.11 3.0402-4.4383 2.5565.4057 1.5126.0682 3.0622-.9331 3.9948-1.6539 1.5404-4.3294.6137-4.9897-.9177-.469-1.0879-.1927-2.2976 1.4383-3.5051-.2579-.25-.9912-.9755-2.0786-2.055" stroke-linecap="round" stroke-linejoin="round"/></g></svg>